<svg width="30" height="27" viewBox="0 0 30 27" fill="none" xmlns="http://www.w3.org/2000/svg">
<path d="M3.40041 1H8.10752V25.8913H3.40041C3.23496 25.8913 3.07622 25.8258 2.95881 25.7093C2.8414 25.5927 2.77486 25.4344 2.77368 25.269V23.8466C2.77486 23.6812 2.8414 23.5229 2.95881 23.4063C3.07622 23.2898 3.23496 23.2243 3.40041 23.2243H5.4406C5.70254 23.0584 5.92028 22.8313 6.07513 22.5627C6.22997 22.294 6.31729 21.9918 6.32958 21.682C6.35178 21.4855 6.35178 21.2872 6.32958 21.0908C6.3181 20.7968 6.23005 20.511 6.07412 20.2615C5.9182 20.012 5.69982 19.8076 5.4406 19.6684H3.66266C3.42688 19.6684 3.20077 19.5748 3.03406 19.4081C2.86734 19.2414 2.77368 19.0152 2.77368 18.7795V16.557C2.77368 16.3213 2.86734 16.0952 3.03406 15.9284C3.20077 15.7617 3.42688 15.6681 3.66266 15.6681H5.4406C5.6152 15.581 5.76732 15.4547 5.88509 15.2991C5.9082 15.276 5.92904 15.2507 5.94732 15.2236C6.16076 14.9066 6.29211 14.5416 6.32958 14.1613C6.33364 14.1498 6.33364 14.1372 6.32958 14.1257C6.34734 13.929 6.34734 13.7312 6.32958 13.5345C6.33155 13.5304 6.33258 13.5258 6.33258 13.5212C6.33258 13.5166 6.33155 13.512 6.32958 13.5079C6.314 13.2184 6.224 12.9378 6.06827 12.6933C5.91253 12.4488 5.69634 12.2487 5.4406 12.1122H3.66266C3.42688 12.1122 3.20077 12.0185 3.03406 11.8518C2.86734 11.6851 2.77368 11.459 2.77368 11.2232V8.11179C2.77368 7.87602 2.86734 7.64991 3.03406 7.48319C3.20077 7.31648 3.42688 7.22282 3.66266 7.22282H5.4406C5.70254 7.05687 5.92028 6.82982 6.07513 6.56116C6.22997 6.29251 6.31729 5.99028 6.32958 5.68045C6.35178 5.48402 6.35178 5.28571 6.32958 5.08928C6.3181 4.79531 6.23005 4.50943 6.07412 4.25995C5.9182 4.01048 5.69982 3.80605 5.4406 3.66692H3.40041C3.23496 3.66693 3.07622 3.60151 2.95881 3.48493C2.8414 3.36836 2.77486 3.21009 2.77368 3.04464V1.62228C2.77486 1.45683 2.8414 1.29856 2.95881 1.18199C3.07622 1.06542 3.23496 0.999996 3.40041 1Z" fill="black" stroke="black" stroke-width="0.25" stroke-miterlimit="10"/>
<path d="M4.82259 4.55591H1.62228C1.2786 4.55591 1 4.83451 1 5.17819V5.71157C1 6.05525 1.2786 6.33386 1.62228 6.33386H4.82259C5.16626 6.33386 5.44487 6.05525 5.44487 5.71157V5.17819C5.44487 4.83451 5.16626 4.55591 4.82259 4.55591Z" fill="black" stroke="black" stroke-width="0.25" stroke-miterlimit="10"/>
<path d="M28.9939 1.88897C28.9814 1.64881 28.877 1.42263 28.7025 1.25719C28.5279 1.09175 28.2965 0.999674 28.056 1H9.44092V25.8913H28.056C28.2957 25.8905 28.5261 25.7979 28.6997 25.6325C28.8733 25.4672 28.9769 25.2417 28.9894 25.0023C28.9916 24.9846 28.9916 24.9667 28.9894 24.949V1.94231C28.9931 1.92478 28.9946 1.90687 28.9939 1.88897ZM14.3258 3.22243H18.7707C19.2422 3.22243 19.6945 3.40975 20.0279 3.74318C20.3613 4.07661 20.5486 4.52884 20.5486 5.00038C20.5486 5.47192 20.3613 5.92415 20.0279 6.25758C19.6945 6.59101 19.2422 6.77833 18.7707 6.77833H14.3258C13.8543 6.77833 13.4021 6.59101 13.0686 6.25758C12.7352 5.92415 12.5479 5.47192 12.5479 5.00038C12.5479 4.52884 12.7352 4.07661 13.0686 3.74318C13.4021 3.40975 13.8543 3.22243 14.3258 3.22243ZM23.789 12.5567C23.5988 12.5834 23.4058 12.5834 23.2156 12.5567H14.3258C13.8543 12.5567 13.4021 12.3693 13.0686 12.0359C12.7352 11.7025 12.5479 11.2503 12.5479 10.7787C12.5479 10.3072 12.7352 9.85494 13.0686 9.52151C13.4021 9.18808 13.8543 9.00076 14.3258 9.00076H23.2156C23.4058 8.97407 23.5988 8.97407 23.789 9.00076C24.2284 9.05735 24.6341 9.26626 24.9354 9.59113C25.2367 9.91599 25.4146 10.3362 25.438 10.7787C25.4148 11.2205 25.2375 11.6402 24.9371 11.965C24.6367 12.2898 24.2321 12.4991 23.7934 12.5567H23.789Z" fill="black" stroke="black" stroke-width="0.25" stroke-miterlimit="10"/>
<path d="M6.33838 14.1124C6.34245 14.1239 6.34245 14.1365 6.33838 14.148V13.5079C6.34036 13.5121 6.34138 13.5167 6.34138 13.5213C6.34138 13.5259 6.34036 13.5304 6.33838 13.5346C6.35535 13.7268 6.35535 13.9202 6.33838 14.1124Z" fill="black" stroke="black" stroke-width="0.25" stroke-miterlimit="10"/>
<path d="M6.32935 21.6687V21.0908C6.35056 21.2828 6.35056 21.4766 6.32935 21.6687Z" fill="black" stroke="black" stroke-width="0.25" stroke-miterlimit="10"/>
<path d="M6.32935 5.66707V5.08923C6.35056 5.28126 6.35056 5.47504 6.32935 5.66707Z" fill="black" stroke="black" stroke-width="0.25" stroke-miterlimit="10"/>
<path d="M6.32935 5.66707V5.08923C6.35056 5.28126 6.35056 5.47504 6.32935 5.66707Z" fill="black" stroke="black" stroke-width="0.25" stroke-miterlimit="10"/>
<path d="M6.32935 21.6687V21.0908C6.35056 21.2828 6.35056 21.4766 6.32935 21.6687Z" fill="black" stroke="black" stroke-width="0.25" stroke-miterlimit="10"/>
<path d="M4.82259 20.5574H1.62228C1.2786 20.5574 1 20.836 1 21.1797V21.713C1 22.0567 1.2786 22.3353 1.62228 22.3353H4.82259C5.16626 22.3353 5.44487 22.0567 5.44487 21.713V21.1797C5.44487 20.836 5.16626 20.5574 4.82259 20.5574Z" fill="black" stroke="black" stroke-width="0.25" stroke-miterlimit="10"/>
<path d="M4.82259 13.0011H1.62228C1.2786 13.0011 1 13.2797 1 13.6234V14.1568C1 14.5004 1.2786 14.779 1.62228 14.779H4.82259C5.16626 14.779 5.44487 14.5004 5.44487 14.1568V13.6234C5.44487 13.2797 5.16626 13.0011 4.82259 13.0011Z" fill="black" stroke="black" stroke-width="0.25" stroke-miterlimit="10"/>
<path d="M6.33838 14.1123V13.5344C6.35535 13.7267 6.35535 13.92 6.33838 14.1123Z" fill="black" stroke="black" stroke-width="0.25" stroke-miterlimit="10"/>
<path d="M28.9983 1.88904V1.94238C29.0005 1.92466 29.0005 1.90675 28.9983 1.88904Z" fill="black" stroke="black" stroke-width="0.25" stroke-miterlimit="10"/>
<path d="M28.9983 24.9489V25.0022C29.0005 24.9845 29.0005 24.9666 28.9983 24.9489Z" fill="black" stroke="black" stroke-width="0.25" stroke-miterlimit="10"/>
<path d="M23.7934 9.00074H23.22C23.4102 8.97404 23.6032 8.97404 23.7934 9.00074Z" fill="black" stroke="black" stroke-width="0.25" stroke-miterlimit="10"/>
<path d="M23.7934 12.5566C23.6032 12.5833 23.4102 12.5833 23.22 12.5566H23.7934Z" fill="black" stroke="black" stroke-width="0.25" stroke-miterlimit="10"/>
<path d="M23.7934 12.5566C23.6032 12.5833 23.4102 12.5833 23.22 12.5566H23.7934Z" fill="black" stroke="black" stroke-width="0.25" stroke-miterlimit="10"/>
<path d="M23.7934 9.00074H23.22C23.4102 8.97404 23.6032 8.97404 23.7934 9.00074Z" fill="black" stroke="black" stroke-width="0.25" stroke-miterlimit="10"/>
<path d="M5.94724 15.2236C5.92896 15.2508 5.90812 15.2761 5.88501 15.2992V15.2236H5.94724Z" fill="black" stroke="black" stroke-width="0.25" stroke-miterlimit="10"/>
</svg>
