<svg width="64" height="64" viewBox="3 0 60 64" fill="none" xmlns="http://www.w3.org/2000/svg">
<g clip-path="url(#clip0_179_2336)">
<g filter="url(#filter0_d_179_2336)">
<path fill-rule="evenodd" clip-rule="evenodd" d="M44.4532 35.0132C48.1066 37.4932 50.6666 40.8532 50.6666 45.3332V53.3332H61.3332V45.3332C61.3332 39.5198 51.8132 36.0799 44.4532 35.0132Z" fill="white"/>
<path d="M23.9999 31.9998C29.891 31.9998 34.6666 27.2242 34.6666 21.3332C34.6666 15.4421 29.891 10.6665 23.9999 10.6665C18.1089 10.6665 13.3333 15.4421 13.3333 21.3332C13.3333 27.2242 18.1089 31.9998 23.9999 31.9998Z" fill="white"/>
<path fill-rule="evenodd" clip-rule="evenodd" d="M39.9999 31.9998C45.8932 31.9998 50.6666 27.2265 50.6666 21.3332C50.6666 15.4398 45.8932 10.6665 39.9999 10.6665C38.7466 10.6665 37.5732 10.9332 36.4532 11.3065C38.6666 14.0532 39.9999 17.5465 39.9999 21.3332C39.9999 25.1198 38.6666 28.6132 36.4532 31.3598C37.5732 31.7332 38.7466 31.9998 39.9999 31.9998Z" fill="white"/>
<path fill-rule="evenodd" clip-rule="evenodd" d="M24 34.6665C16.88 34.6665 2.66663 38.2398 2.66663 45.3332V53.3332H45.3333V45.3332C45.3333 38.2398 31.12 34.6665 24 34.6665Z" fill="white"/>
</g>
</g>
<defs>
<filter id="filter0_d_179_2336" x="-5.33337" y="2.6665" width="74.6666" height="58.6665" filterUnits="userSpaceOnUse" color-interpolation-filters="sRGB">
<feFlood flood-opacity="0" result="BackgroundImageFix"/>
<feColorMatrix in="SourceAlpha" type="matrix" values="0 0 0 0 0 0 0 0 0 0 0 0 0 0 0 0 0 0 127 0" result="hardAlpha"/>
<feOffset/>
<feGaussianBlur stdDeviation="4"/>
<feComposite in2="hardAlpha" operator="out"/>
<feColorMatrix type="matrix" values="0 0 0 0 0.979167 0 0 0 0 0.979167 0 0 0 0 0.979167 0 0 0 1 0"/>
<feBlend mode="normal" in2="BackgroundImageFix" result="effect1_dropShadow_179_2336"/>
<feBlend mode="normal" in="SourceGraphic" in2="effect1_dropShadow_179_2336" result="shape"/>
</filter>
<clipPath id="clip0_179_2336">
<rect width="64" height="64" fill="white"/>
</clipPath>
</defs>
</svg>
