<svg width="83" height="74" viewBox="0 0 83 74" fill="none" xmlns="http://www.w3.org/2000/svg">
<g clip-path="url(#clip0_47_436)">
<path d="M83 10.8832H53.9221V18.1291H83V10.8832Z" fill="white"/>
<path d="M72.1012 28.9981V1.90735e-06L64.8353 1.90735e-06V28.9981H72.1012Z" fill="white"/>
<path d="M7.15147 2.68157C5.25479 2.68157 3.43578 3.43296 2.09462 4.77044C0.753457 6.10792 0 7.92193 0 9.81342L0 66.8682C0 68.7596 0.753457 70.5737 2.09462 71.9111C3.43578 73.2486 5.25479 74 7.15147 74H50.0603C51.957 74 53.776 73.2486 55.1172 71.9111C56.4583 70.5737 57.2118 68.7596 57.2118 66.8682V24.0771L35.7574 2.68157H7.15147ZM32.1816 27.643V8.03045L51.8482 27.643H32.1816Z" fill="white"/>
</g>
<defs>
<clipPath id="clip0_47_436">
<rect width="83" height="74" fill="white"/>
</clipPath>
</defs>
</svg>
