<svg width="88" height="74" viewBox="0 0 88 74" fill="none" xmlns="http://www.w3.org/2000/svg">
<g clip-path="url(#clip0_47_449)">
<path d="M87.9863 10.4154H60.1933V17.3499H87.9863V10.4154Z" fill="white"/>
<path d="M77.5827 27.7517V0L70.6379 0V27.7517H77.5827Z" fill="white"/>
<path fill-rule="evenodd" clip-rule="evenodd" d="M57.131 48.9921C62.1209 52.3774 65.6206 56.964 65.6206 63.0795V74H80.2075V63.0795C80.2075 55.1485 67.1928 50.5073 57.131 48.9921Z" fill="white"/>
<path d="M29.1602 44.8832C32.0458 44.8859 34.8673 44.034 37.2679 42.4352C39.6686 40.8364 41.5403 38.5625 42.6465 35.9013C43.7526 33.2401 44.0434 30.3111 43.4821 27.4849C42.9208 24.6586 41.5327 22.062 39.4932 20.0237C37.4537 17.9853 34.8546 16.5968 32.0246 16.0337C29.1947 15.4706 26.261 15.7582 23.5948 16.8602C20.9286 17.9622 18.6496 19.8291 17.0462 22.2246C15.4428 24.6201 14.5869 27.4367 14.5869 30.318C14.5869 34.1786 16.1219 37.8812 18.8545 40.6123C21.5871 43.3435 25.2938 44.8796 29.1602 44.8832Z" fill="white"/>
<path fill-rule="evenodd" clip-rule="evenodd" d="M51.0337 44.8832C52.986 44.9429 54.9303 44.6105 56.7515 43.9058C58.5727 43.201 60.2336 42.1382 61.6356 40.7805C63.0377 39.4227 64.1524 37.7976 64.9136 36.0015C65.6749 34.2055 66.0671 32.2751 66.0671 30.3249C66.0671 28.3746 65.6749 26.4442 64.9136 24.6482C64.1524 22.8521 63.0377 21.227 61.6356 19.8693C60.2336 18.5115 58.5727 17.4487 56.7515 16.7439C54.9303 16.0392 52.986 15.7068 51.0337 15.7665C49.3833 15.789 47.748 16.0842 46.1942 16.6401C49.3175 20.5194 51.0201 25.3475 51.0201 30.3249C51.0201 35.3023 49.3175 40.1304 46.1942 44.0096C47.7497 44.5591 49.384 44.8541 51.0337 44.8832Z" fill="white"/>
<path fill-rule="evenodd" clip-rule="evenodd" d="M29.1602 48.528C19.4264 48.528 0 53.4012 0 63.0795V74H58.334V63.0795C58.334 53.4012 38.8939 48.528 29.1602 48.528Z" fill="white"/>
</g>
<defs>
<clipPath id="clip0_47_449">
<rect width="88" height="74" fill="white"/>
</clipPath>
</defs>
</svg>
