<svg width="74" height="64" viewBox="0 0 74 64" fill="none" xmlns="http://www.w3.org/2000/svg">
<g clip-path="url(#clip0_47_443)">
<path d="M30.8374 33.5706C33.8848 33.5706 36.8639 32.6781 39.3985 31.0057C41.933 29.3334 43.9093 26.9563 45.0777 24.1746C46.2461 21.3929 46.5543 18.3313 45.9633 15.3766C45.3722 12.4219 43.9086 9.70661 41.7571 7.57354C39.6056 5.44048 36.8628 3.98537 33.875 3.39198C30.8873 2.79858 27.7887 3.09353 24.9704 4.23956C22.1522 5.38558 19.7408 7.3313 18.0408 9.83096C16.3407 12.3306 15.4283 15.2721 15.4187 18.284C15.4107 20.2896 15.8037 22.2771 16.5751 24.1322C17.3466 25.9873 18.4812 27.6735 19.9139 29.0939C21.3467 30.5144 23.0492 31.6411 24.9238 32.4093C26.7983 33.1776 28.808 33.5722 30.8374 33.5706ZM30.8374 41.184C20.538 41.136 0 46.2435 0 56.3507V63.976H61.6626V56.3507C61.6626 46.2435 41.1246 41.136 30.8374 41.136V41.184Z" fill="#FFFCFC"/>
<path d="M74 9.14799H49.3374V15.2387H74V9.14799Z" fill="#FFFCFC"/>
<path d="M64.7561 24.3747V0L58.5934 0V24.3747H64.7561Z" fill="#FFFCFC"/>
</g>
<defs>
<clipPath id="clip0_47_443">
<rect width="74" height="64" fill="white"/>
</clipPath>
</defs>
</svg>
