<svg width="21" height="21" viewBox="0 0 21 21" fill="none" xmlns="http://www.w3.org/2000/svg">
<path d="M9.4585 13.6249H11.5418V15.7083H9.4585V13.6249ZM9.4585 5.29159H11.5418V11.5416H9.4585V5.29159ZM10.4897 0.083252C4.73975 0.083252 0.0834961 4.74992 0.0834961 10.4999C0.0834961 16.2499 4.73975 20.9166 10.4897 20.9166C16.2502 20.9166 20.9168 16.2499 20.9168 10.4999C20.9168 4.74992 16.2502 0.083252 10.4897 0.083252ZM10.5002 18.8333C5.896 18.8333 2.16683 15.1041 2.16683 10.4999C2.16683 5.89575 5.896 2.16659 10.5002 2.16659C15.1043 2.16659 18.8335 5.89575 18.8335 10.4999C18.8335 15.1041 15.1043 18.8333 10.5002 18.8333Z" fill="#CE1212"/>
</svg>
